<svg width="145" height="144" viewBox="0 0 145 144" fill="none" xmlns="http://www.w3.org/2000/svg">
<circle cx="72.6303" cy="71.9018" r="71.767" fill="white"/>
<g clip-path="url(#clip0)">
<path d="M86.2899 71.0531V72.2499C86.2899 73.964 85.7528 75.6342 84.754 77.0266L82.2562 80.5128V98.8926C82.2562 99.8388 81.4892 100.606 80.5429 100.606H62.7329C61.7867 100.606 61.0195 99.839 61.0195 98.8926V86.5003V58.3496H86.2899V71.0531Z" fill="#FED2A4"/>
<path d="M86.2889 59.5598V58.3516H62.889H61.0186V86.5021V98.8944C61.0186 99.8406 61.7856 100.608 62.7319 100.608H69.4245C69.3753 100.448 69.3485 100.278 69.3485 100.103V88.4663C71.4245 87.2094 72.8152 84.929 72.8152 82.3296V78.8804C72.8152 75.9847 71.6881 73.2628 69.6404 71.2152C69.5449 71.1198 69.4473 71.0269 69.3485 70.9354V59.5598H86.2889Z" fill="#FFBD86"/>
<path d="M98.3651 45.0919C99.0659 45.0919 99.6342 45.6601 99.6342 46.361V69.6672C99.6342 70.3681 99.066 70.9362 98.3651 70.9362H46.894C46.1932 70.9362 45.625 70.3681 45.625 69.6672V46.3609C45.625 45.66 46.1932 45.0918 46.894 45.0918H98.3651V45.0919Z" fill="#97DA7B"/>
<path d="M57.4166 69.6671V46.3609C57.4166 45.66 57.9848 45.0918 58.6857 45.0918H46.894C46.1932 45.0918 45.625 45.66 45.625 46.3609V69.6671C45.625 70.3679 46.1932 70.9361 46.894 70.9361H58.6857C57.9848 70.9362 57.4166 70.3681 57.4166 69.6671Z" fill="#80D261"/>
<path d="M63.0431 58.4963C61.864 57.3148 60.2947 56.6641 58.6245 56.6641C58.582 56.6641 58.5391 56.6645 58.4962 56.6653C55.1226 56.734 52.3779 59.5658 52.3779 62.9778V70.9338H69.3493C68.1413 69.8142 66.6934 68.9856 65.1307 68.5092C64.9776 68.4625 64.8713 68.3235 64.8713 68.1634V62.9108C64.8713 61.2408 64.2207 59.6716 63.0431 58.4963V58.4963Z" fill="#80D261"/>
<path d="M93.621 48.5645C93.621 49.9684 94.7591 51.1065 96.1631 51.1065V64.9221C94.7591 64.9221 93.621 66.0602 93.621 67.4642H51.6407C51.6407 66.0602 50.5026 64.9221 49.0986 64.9221V51.1065C50.5026 51.1065 51.6407 49.9684 51.6407 48.5645H93.621Z" fill="#DBF1D0"/>
<path d="M63.0446 58.499C61.8654 57.3175 60.2962 56.6668 58.626 56.6668C58.5835 56.6668 58.5406 56.6672 58.4976 56.668C58.4939 56.6681 58.4902 56.6681 58.4866 56.6683C57.903 56.6812 57.418 56.2246 57.418 55.6408V48.5645H51.6407C51.6407 49.9684 50.5026 51.1065 49.0986 51.1065V64.9221C50.5026 64.9221 51.6407 66.0602 51.6407 67.4642H64.8728V62.9135C64.8728 61.2435 64.2222 59.6742 63.0446 58.499V58.499Z" fill="#D5EFC8"/>
<path d="M72.6351 64.2332C76.3724 64.2332 79.4021 61.2035 79.4021 57.4662C79.4021 53.7289 76.3724 50.6992 72.6351 50.6992C68.8978 50.6992 65.8682 53.7289 65.8682 57.4662C65.8682 61.2035 68.8978 64.2332 72.6351 64.2332Z" fill="#97DA7B"/>
<path d="M83.0284 45.1645V48.5616C83.0284 50.1681 81.7251 51.4702 80.1186 51.4702C78.5121 51.4702 77.21 50.1681 77.21 48.5616V45.1645C77.21 44.0753 78.0931 43.1934 79.1822 43.1934H81.0561C82.1453 43.1934 83.0284 44.0753 83.0284 45.1645V45.1645Z" fill="#FED2A4"/>
<path d="M77.2089 48.5616V49.7653C77.2089 51.3718 75.9068 52.6739 74.3002 52.6739C72.6937 52.6739 71.3916 51.3718 71.3916 49.7653V45.1645C71.3916 44.0753 72.2736 43.1934 73.3627 43.1934H75.2378C76.3269 43.1934 77.2089 44.0753 77.2089 45.1645V48.5616Z" fill="#FED2A4"/>
<path d="M71.3917 49.7653V50.7456C71.3917 52.3522 70.0884 53.6543 68.4819 53.6543C66.8754 53.6543 65.5732 52.3522 65.5732 50.7456V49.7653V45.1645C65.5732 44.0753 66.4564 43.1934 67.5455 43.1934H69.4194C70.5086 43.1934 71.3917 44.0753 71.3917 45.1645V49.7653Z" fill="#FED2A4"/>
<path d="M65.5731 45.1645V49.7653C65.5731 51.3718 64.271 52.6739 62.6645 52.6739C61.058 52.6739 59.7559 51.3718 59.7559 49.7653V45.1645C59.7559 44.0753 60.6378 43.1934 61.727 43.1934H63.602C64.6912 43.1934 65.5731 44.0753 65.5731 45.1645Z" fill="#FED2A4"/>
<path d="M80.0098 48.5616V45.1645C80.0098 44.2351 80.6584 43.4575 81.5239 43.249C81.3751 43.2133 81.2159 43.1934 81.0561 43.1934H79.1822C78.0931 43.1934 77.21 44.0753 77.21 45.1645V48.5616C77.21 50.1681 78.5121 51.4702 80.1186 51.4702C80.6261 51.4702 81.1032 51.34 81.5186 51.1115C80.6194 50.6168 80.0098 49.6605 80.0098 48.5616Z" fill="#FFBD86"/>
<path d="M74.1914 49.7653V45.1645C74.1914 44.2349 74.8394 43.4571 75.7048 43.2489C75.5563 43.2133 75.3974 43.1934 75.2378 43.1934H73.3627C72.2736 43.1934 71.3916 44.0753 71.3916 45.1645V49.7653C71.3916 51.3718 72.6937 52.6739 74.3002 52.6739C74.8078 52.6739 75.2848 52.5437 75.7002 52.3151C74.801 51.8204 74.1914 50.8643 74.1914 49.7653Z" fill="#FFBD86"/>
<path d="M68.3731 50.7456V49.7653V45.1645C68.3731 44.2351 69.0232 43.4578 69.8886 43.2495C69.7399 43.2136 69.5791 43.1934 69.4194 43.1934H67.5455C66.4564 43.1934 65.5732 44.0753 65.5732 45.1645V49.7653V50.7456C65.5732 52.3522 66.8754 53.6543 68.4819 53.6543C68.9894 53.6543 69.4665 53.5241 69.8819 53.2956C68.9827 52.8009 68.3731 51.8446 68.3731 50.7456Z" fill="#FFBD86"/>
<path d="M62.5557 49.7653V45.1645C62.5557 44.2349 63.204 43.4573 64.0694 43.249C63.9208 43.2133 63.7616 43.1934 63.602 43.1934H61.727C60.6378 43.1934 59.7559 44.0753 59.7559 45.1645V49.7653C59.7559 51.3718 61.058 52.6739 62.6645 52.6739C63.172 52.6739 63.6491 52.5437 64.0644 52.3151C63.1652 51.8204 62.5557 50.8643 62.5557 49.7653Z" fill="#FFBD86"/>
<path d="M69.9243 82.327C69.9243 84.7248 67.9523 86.6536 65.5551 86.6002L61.0213 86.4994L57.0501 82.5282C55.9123 81.3905 55.2734 79.8476 55.2734 78.2399V62.9768C55.2734 61.1408 56.7213 59.5946 58.5569 59.5573C59.5104 59.538 60.3753 59.9165 60.997 60.5393C61.6046 61.1458 61.9796 61.9838 61.9796 62.9098V70.0586C61.9796 70.5322 62.3384 70.9271 62.8096 70.9759C64.6717 71.1692 66.3431 72.0057 67.5978 73.2596C69.0354 74.6971 69.9243 76.6833 69.9243 78.8778V82.327Z" fill="#FED2A4"/>
<path d="M65.0142 86.0105L65.0153 86.0095L61.534 82.5282C60.3963 81.3905 59.7574 79.8476 59.7574 78.2399V62.9768C59.7574 61.9744 60.1895 61.0591 60.8802 60.4279C60.2692 59.8717 59.4521 59.5392 58.5569 59.5573C56.7213 59.5946 55.2734 61.1408 55.2734 62.9768V78.24C55.2734 79.8477 55.9123 81.3906 57.0501 82.5283L61.0213 86.4995L65.5551 86.6003C65.5714 86.6007 65.5875 86.5999 65.6037 86.6001L65.0142 86.0105Z" fill="#FFBD86"/>
</g>
<circle cx="72.63" cy="71.9015" r="63.3942" stroke="#FF9D08" stroke-width="7.1767"/>
<defs>
<clipPath id="clip0">
<rect width="57.4136" height="57.4136" fill="white" transform="translate(43.9238 43.1973)"/>
</clipPath>
</defs>
</svg>
