<svg width="160" height="160" viewBox="0 0 160 160" fill="none" xmlns="http://www.w3.org/2000/svg">
<circle cx="80" cy="80" r="80" fill="white"/>
<path d="M98.543 72.5862C98.5165 72.5283 98.4898 72.4704 98.4631 72.4125C96.5464 68.2825 95.6129 63.7646 95.6111 59.2115L95.6073 49.658C95.6073 36.0496 86.7297 24.5166 74.4507 20.5293C60.6488 23.1493 50.2123 35.2739 50.2123 49.838L50.2086 59.1459C50.2067 63.582 49.2971 67.9839 47.4297 72.0078C47.4037 72.064 47.3777 72.1205 47.3519 72.1767C43.2303 81.1987 48.9341 91.7701 58.7607 93.1208C59.7143 93.2518 60.6884 93.3195 61.6781 93.3195H89.9335C98.0614 90.3799 102.318 80.85 98.543 72.5862Z" fill="#343434"/>
<path d="M57.0485 50.4688H62.8627V64.1497H57.0485C53.2698 64.1497 50.2071 61.0861 50.208 57.3074C50.2089 53.5303 53.2712 50.4688 57.0485 50.4688Z" fill="#FFCBBE"/>
<path d="M112.745 72.1741C112.719 72.1176 112.693 72.0613 112.667 72.0049C110.799 67.981 109.89 63.5791 109.888 59.143L109.884 49.835C109.884 33.3576 96.5263 20 80.0488 20C77.2781 20 74.5963 20.3792 72.0508 21.0858C84.6441 24.5819 93.8878 36.1283 93.8878 49.835L93.8915 59.143C93.8934 63.5791 94.8028 67.981 96.6702 72.0049C96.6962 72.0611 96.7222 72.1176 96.748 72.1741C100.87 81.1961 95.1658 91.7675 85.3392 93.1179C84.3856 93.2489 83.4115 93.3166 82.4218 93.3166H98.4181C99.4079 93.3166 100.382 93.2489 101.336 93.1179C111.162 91.7675 116.866 81.1963 112.745 72.1741V72.1741Z" fill="black"/>
<path d="M80.0458 105.859C87.1113 105.859 93.4268 102.666 97.6393 97.6475C99.068 95.9453 98.1228 93.3302 95.9404 92.9102C93.192 92.3812 91.2055 89.9762 91.2055 87.1773V71.1426H68.8859V87.1776C68.8859 89.9764 66.8996 92.3815 64.1512 92.9104C61.9687 93.3304 61.0235 95.9455 62.4522 97.6477C66.6648 102.666 72.9803 105.859 80.0458 105.859V105.859Z" fill="#FFCBBE"/>
<path d="M58.3496 108.753V137.888L60.327 139.997H99.766L101.743 137.888V108.753C101.743 106.721 101.573 104.7 101.244 102.708C98.5765 100.735 95.6158 99.117 92.4239 97.9334C89.1873 100.971 84.8355 102.833 80.0462 102.833C73.0098 102.833 66.9158 98.8165 63.9198 92.9531L61.6819 93.3839C59.4903 98.2058 58.3496 103.445 58.3496 108.753V108.753Z" fill="#F9F6F9"/>
<path d="M96.2927 93.2082L96.1722 92.9551C94.968 95.3116 93.2625 97.3692 91.1973 98.9882C94.1257 100.02 96.8584 101.43 99.3448 103.152C98.8168 99.7166 97.7933 96.3654 96.2927 93.2082Z" fill="#DDDAEC"/>
<path d="M30 127.957V134.278C30 137.437 32.5609 139.998 35.72 139.998H44.6199V139.096H48.2416V139.998H60.3275V109.022C60.3275 103.427 61.6373 97.9088 64.1523 92.9102L57.9639 94.1012C41.7315 97.2239 30 111.428 30 127.957V127.957Z" fill="#FC9631"/>
<path d="M98.9834 101.17C99.4999 103.607 99.7662 106.099 99.7662 108.605V140.001H111.852V139.099H115.474V140.001H115.781V131.532C115.781 118.896 109.185 107.57 98.9834 101.17V101.17Z" fill="#FC9631"/>
<path d="M102.128 94.0994L102 94.0748L96.1719 92.9531L96.2923 93.2062C97.793 96.3634 98.8162 99.7146 99.3447 103.15C108.411 109.432 114.198 119.892 114.198 131.5V139.095H115.472V139.997H124.372C127.531 139.997 130.092 137.436 130.092 134.277V127.957C130.092 111.427 118.36 97.2228 102.128 94.0994V94.0994Z" fill="#DD7611"/>
<path d="M48.2406 139.938V129.131C48.2406 128.131 47.4299 127.32 46.4299 127.32C45.4298 127.32 44.6191 128.131 44.6191 129.131V139.938C44.6191 139.959 44.6215 139.979 44.6222 139.999H48.2375C48.238 139.979 48.2406 139.959 48.2406 139.938V139.938Z" fill="#DD7611"/>
<path d="M113.662 127.32C112.662 127.32 111.852 128.131 111.852 129.131V139.999H115.473V129.131C115.473 128.131 114.662 127.32 113.662 127.32Z" fill="#DD7611"/>
<path d="M97.6377 66.4502H104.957C108.063 66.4502 110.581 63.9324 110.581 60.8266V53.7958C110.581 50.6899 108.063 48.1719 104.957 48.1719H97.6377V66.4502Z" fill="#365E7D"/>
<path d="M98.0841 71.5601C96.4236 67.6647 95.6123 63.4538 95.6106 59.2122L95.6069 49.6587C95.6069 45.9601 94.9504 42.4153 93.7488 39.1332C92.7211 38.7725 91.6167 38.5742 90.4658 38.5742C87.8099 38.5742 85.2651 39.6397 83.4014 41.5319C81.2556 43.7106 78.3255 44.9373 75.2677 44.9373H66.3364C62.6789 44.9373 59.7139 47.9023 59.7139 51.5598V62.4805C59.8814 73.5703 68.918 82.5098 80.0476 82.5098C87.8919 82.5098 94.6919 78.0655 98.0841 71.5601V71.5601Z" fill="#FFDDCE"/>
<path d="M100.381 48.4886C100.381 43.4359 96.6009 39.2688 91.7148 38.6543C93.1128 42.1084 93.8867 45.8822 93.8867 49.8376L93.8905 59.1456C93.8924 63.5817 94.8017 67.9836 96.6691 72.0074C96.6952 72.0637 96.7212 72.1202 96.747 72.1767C96.896 72.5029 97.0308 72.8315 97.1543 73.1615C99.1424 70.0723 100.322 66.4126 100.381 62.4794V48.4886Z" fill="#FFCBBE"/>
<path d="M104.961 66.4454H103.005V71.8426C103.005 73.2678 101.845 74.4273 100.42 74.4273H93.414C92.443 74.4273 91.6562 75.214 91.6562 76.185C91.6562 77.156 92.443 77.9428 93.414 77.9428H100.42C103.784 77.9428 106.52 75.2063 106.52 71.8426V66.2246C106.025 66.3673 105.502 66.4454 104.961 66.4454Z" fill="#F9F6F9"/>
<path d="M91.7836 79.9794H86.2914C84.1953 79.9794 82.4961 78.2802 82.4961 76.184C82.4961 74.0878 84.1953 72.3887 86.2914 72.3887H91.7836C93.8798 72.3887 95.579 74.0878 95.579 76.184C95.579 78.28 93.8798 79.9794 91.7836 79.9794Z" fill="#475959"/>
</svg>
