<svg width="160" height="160" viewBox="0 0 160 160" fill="none" xmlns="http://www.w3.org/2000/svg">
<circle cx="80" cy="80" r="80" fill="white"/>
<path d="M122.582 40.193C103.092 40.193 82.8939 22.127 82.6939 21.9461C81.3514 20.7289 79.3051 20.7289 77.9629 21.9461C77.7617 22.1285 57.6166 40.193 38.0748 40.193C36.1302 40.193 34.5537 41.7695 34.5537 43.7141V85.8827C34.5537 120.043 59.9612 133.694 79.0725 140.99C79.477 141.144 79.9026 141.221 80.3284 141.221C80.7542 141.221 81.1798 141.144 81.5843 140.99C108.381 130.76 126.103 114.802 126.103 85.8827V43.7141C126.103 41.7695 124.527 40.193 122.582 40.193V40.193Z" fill="url(#paint0_linear)"/>
<path d="M80.3286 56.4805C66.7377 56.4805 55.6807 67.5375 55.6807 81.1284C55.6807 94.7192 66.7377 105.776 80.3286 105.776C93.9194 105.776 104.976 94.7192 104.976 81.1284C104.976 67.5375 93.9194 56.4805 80.3286 56.4805ZM89.8605 80.0969L79.2971 90.6603C78.6098 91.3478 77.7086 91.6917 76.8074 91.6917C75.9063 91.6917 75.0051 91.3481 74.3178 90.6603L70.7966 87.1392C69.4215 85.764 69.4215 83.5347 70.7966 82.1596C72.1715 80.7845 74.4011 80.7845 75.7762 82.1596L76.8077 83.1908L84.8814 75.1173C86.2563 73.7422 88.4858 73.7422 89.861 75.1173C91.2359 76.4924 91.2358 78.7218 89.8605 80.0969V80.0969Z" fill="white"/>
<defs>
<linearGradient id="paint0_linear" x1="80.3284" y1="141.221" x2="80.3284" y2="21.0331" gradientUnits="userSpaceOnUse">
<stop stop-color="#EC5827"/>
<stop offset="1" stop-color="#FC9631"/>
</linearGradient>
</defs>
</svg>
