<svg width="161" height="160" viewBox="0 0 161 160" fill="none" xmlns="http://www.w3.org/2000/svg">
<path d="M160.001 80.0004C160.001 112.043 141.163 139.687 113.958 152.457C105.51 156.424 96.256 158.955 86.5062 159.738C84.3602 159.912 82.1923 159.999 80.0011 159.999C77.4291 159.999 74.8778 159.879 72.3643 159.637C69.1514 159.337 65.9935 158.841 62.9051 158.168C56.6062 156.796 50.5881 154.685 44.9423 151.928C27.9489 143.631 14.3331 129.489 6.71219 112.121C2.39576 102.289 0.00195312 91.425 0.00195312 80.0004C0.00195312 35.8168 35.8188 0 80.0011 0C124.185 0 160.001 35.8168 160.001 80.0004Z" fill="white"/>
<path d="M152.821 103.157V113.172C144.939 130.449 131.09 144.428 113.911 152.48C110.799 153.937 107.576 155.2 104.258 156.252C100.527 157.444 96.6765 158.362 92.7263 158.991C92.7092 158.994 92.6897 158.998 92.6738 158.998V103.157C92.6738 91.2554 101.839 81.4922 113.503 80.5522C114.117 80.4998 114.735 80.4766 115.357 80.4766H130.13C131.877 80.4766 133.579 80.6694 135.211 81.0454C145.294 83.3501 152.821 92.3785 152.821 103.157V103.157Z" fill="#BFD5DE"/>
<path d="M152.821 103.157V113.172C144.939 130.449 131.09 144.428 113.911 152.48C110.799 153.937 107.577 155.2 104.259 156.252V103.157C104.259 90.6317 114.418 80.4766 126.947 80.4766H130.133C142.666 80.4766 152.821 90.6317 152.821 103.157V103.157Z" fill="#DDE8ED"/>
<path d="M100.544 55.4585C100.544 59.2049 97.806 62.3116 94.222 62.889C93.8314 62.9525 93.4273 62.9855 93.0171 62.9855C88.8582 62.9855 85.4902 59.6163 85.4902 55.4585C85.4902 51.3008 88.8582 47.9316 93.0171 47.9316C93.4273 47.9316 93.8314 47.9646 94.222 48.0281C97.806 48.6055 100.544 51.7122 100.544 55.4585V55.4585Z" fill="#D3A489"/>
<path d="M100.544 55.4578C100.544 59.2042 97.8062 62.3109 94.2222 62.8883C93.5715 60.5201 93.2236 58.0299 93.2236 55.4578C93.2236 52.887 93.5715 50.3955 94.2222 48.0273C97.8062 48.6047 100.544 51.7114 100.544 55.4578V55.4578Z" fill="#BF8E75"/>
<path d="M95.7071 55.458C95.7071 56.9436 94.5022 58.1485 93.0166 58.1485C91.531 58.1485 90.3262 56.9436 90.3262 55.458C90.3262 53.9724 91.531 52.7676 93.0166 52.7676C94.5022 52.7676 95.7071 53.9724 95.7071 55.458Z" fill="#BF8E75"/>
<path d="M144.947 55.4585C144.947 59.2049 147.684 62.3116 151.268 62.889C151.66 62.9525 152.064 62.9855 152.474 62.9855C156.633 62.9855 160.001 59.6163 160.001 55.4585C160.001 51.3008 156.633 47.9316 152.474 47.9316C152.064 47.9316 151.66 47.9646 151.268 48.0281C147.684 48.6055 144.947 51.7122 144.947 55.4585Z" fill="#D3A489"/>
<path d="M144.947 55.4578C144.947 59.2042 147.684 62.3109 151.268 62.8883C151.92 60.5201 152.268 58.0299 152.268 55.4578C152.268 52.887 151.92 50.3955 151.268 48.0273C147.684 48.6047 144.947 51.7114 144.947 55.4578Z" fill="#BF8E75"/>
<path d="M155.165 55.458C155.165 56.9436 153.96 58.1485 152.475 58.1485C150.989 58.1485 149.784 56.9436 149.784 55.458C149.784 53.9724 150.989 52.7676 152.475 52.7676C153.96 52.7676 155.165 53.9724 155.165 55.458Z" fill="#BF8E75"/>
<path d="M150.75 51.4556C150.75 65.3913 140.569 76.9526 127.24 79.0986C125.778 79.3391 124.277 79.46 122.746 79.46C107.278 79.46 94.7402 66.9233 94.7402 51.4556C94.7402 44.1375 97.283 33.1511 101.878 28.162C106.996 22.6066 114.596 23.4501 122.746 23.4501C124.277 23.4501 125.778 23.5721 127.24 23.8126C140.569 25.9586 150.75 37.5188 150.75 51.4556V51.4556Z" fill="#BF8E75"/>
<path d="M130.839 71.7363V81.6693C130.839 85.3058 128.442 88.3795 125.138 89.4C124.383 89.6344 123.577 89.7613 122.745 89.7613C118.274 89.7613 114.651 86.1395 114.651 81.6693V71.7363H130.839Z" fill="#BF8E75"/>
<path d="M130.839 81.041V81.6697C130.839 85.3062 128.442 88.3799 125.138 89.4017C122.159 88.4849 119.919 85.8946 119.505 82.7244C120.046 82.7573 120.589 82.7744 121.136 82.7744C122.668 82.7744 124.168 82.6524 125.63 82.4119C127.432 82.1226 129.173 81.6587 130.839 81.041V81.041Z" fill="#D3A489"/>
<path d="M150.75 51.4587C150.75 65.3943 140.569 76.9557 127.24 79.1017C113.91 76.9557 103.729 65.3943 103.729 51.4587C103.729 42.8771 107.589 35.1964 113.671 30.0584C117.461 26.8528 122.12 24.6397 127.24 23.8145C139.667 25.8152 149.36 36.002 150.612 48.6657C150.704 49.5849 150.75 50.5175 150.75 51.4587Z" fill="#D3A489"/>
<path d="M122.746 65.2509C120.401 65.2509 118.056 64.6625 115.919 63.4882C115.316 63.1562 115.095 62.3993 115.427 61.7963C115.759 61.1933 116.516 60.9735 117.119 61.3044C120.643 63.2416 124.85 63.2416 128.374 61.3044C128.976 60.9735 129.734 61.1933 130.066 61.7963C130.397 62.3993 130.177 63.1562 129.574 63.4882C127.436 64.6625 125.091 65.2509 122.746 65.2509V65.2509Z" fill="#BF8E75"/>
<path d="M116.782 49.8267C116.782 51.5821 115.359 53.0042 113.605 53.0042C111.85 53.0042 110.428 51.5821 110.428 49.8267C110.428 48.0725 111.85 46.6504 113.605 46.6504C115.359 46.6504 116.782 48.0725 116.782 49.8267Z" fill="#3D4159"/>
<path d="M135.063 49.8267C135.063 51.5821 133.641 53.0042 131.886 53.0042C130.132 53.0042 128.709 51.5821 128.709 49.8267C128.709 48.0725 130.132 46.6504 131.886 46.6504C133.641 46.6504 135.063 48.0725 135.063 49.8267Z" fill="#3D4159"/>
<path d="M116.135 49.2654C116.135 50.0173 115.524 50.6265 114.772 50.6265C114.02 50.6265 113.411 50.0173 113.411 49.2654C113.411 48.5134 114.02 47.9043 114.772 47.9043C115.524 47.9043 116.135 48.5134 116.135 49.2654Z" fill="white"/>
<path d="M134.572 49.2654C134.572 50.0173 133.962 50.6265 133.21 50.6265C132.458 50.6265 131.849 50.0173 131.849 49.2654C131.849 48.5134 132.458 47.9043 133.21 47.9043C133.962 47.9043 134.572 48.5134 134.572 49.2654Z" fill="white"/>
<path d="M125.923 57.8264H119.569C118.812 57.8264 118.199 57.2124 118.199 56.4556C118.199 55.6987 118.812 55.0859 119.569 55.0859H125.923C126.679 55.0859 127.294 55.6987 127.294 56.4556C127.294 57.2124 126.679 57.8264 125.923 57.8264V57.8264Z" fill="#BF8E75"/>
<path d="M131.966 102.414H144.174V106.152H131.966V102.414Z" fill="#BFD5DE"/>
<path d="M121.106 15.4523C129.59 16.059 136.402 22.912 136.833 31.5388L136.913 33.1587H141.794L144.422 50.6368L150.788 48.6666L149.934 31.5388C149.482 22.4775 141.987 15.3754 132.917 15.4083L121.106 15.4523Z" fill="#2A2F4F"/>
<path d="M149.394 8.69336C156.149 15.4488 156.149 26.4022 149.394 33.1576C142.639 39.9131 131.685 39.9131 124.93 33.1576L149.394 8.69336Z" fill="#3D4159"/>
<path d="M124.931 33.1575H103.7L101.07 50.6368L94.7041 48.6666L95.5586 31.5388C96.009 22.4787 103.504 15.3741 112.575 15.4083L143.238 15.5243L147.292 22.8205" fill="#3D4159"/>
<path d="M124.385 15.4523C115.902 16.059 109.09 22.912 108.658 31.5388L108.578 33.1587H103.699L101.069 50.6368L94.7031 48.6666L95.5588 31.5388C96.0093 22.4775 103.504 15.3754 112.574 15.4083L124.385 15.4523Z" fill="#2A2F4F"/>
<path d="M62.9049 103.828V158.169C37.6606 152.674 16.867 135.263 6.71191 112.122V103.828C6.71191 94.022 13.3697 85.77 22.4139 83.3543C22.7447 83.2627 23.0768 83.1809 23.4173 83.1089C24.3146 82.9136 25.2362 82.7793 26.1725 82.7048C26.7438 82.6584 27.3224 82.6328 27.9071 82.6328H41.7097C43.2539 82.6328 44.7554 82.7952 46.2056 83.1089C46.291 83.126 46.3716 83.1455 46.4534 83.165C46.6987 83.22 46.9404 83.2786 47.1821 83.3445C47.1919 83.3481 47.1919 83.3481 47.2017 83.3506C49.5882 83.9878 51.8086 85.0327 53.7813 86.4036C59.2965 90.2305 62.9049 96.6075 62.9049 103.828Z" fill="#3D4159"/>
<path d="M34.8062 91.3099L25.2652 96.6127L22.3623 83.1116L28.2913 79.6191" fill="#EC5827"/>
<path d="M34.8057 91.3099L44.348 96.6127L47.2508 83.1116L41.3218 79.6191" fill="#EC5827"/>
<path d="M42.3695 74.4688V83.7498C42.3695 87.1471 40.1295 90.0182 37.0435 90.9715C36.338 91.1913 35.5848 91.3097 34.8072 91.3097C30.6311 91.3097 27.2461 87.9259 27.2461 83.7486V74.4688H42.3695Z" fill="#EAB599"/>
<path d="M14.0638 59.261C14.0638 62.762 11.5076 65.6649 8.15923 66.2032C7.79302 66.263 7.41582 66.2935 7.03252 66.2935C3.14699 66.2935 0 63.1466 0 59.261C0 55.3767 3.14699 52.2285 7.03252 52.2285C7.41582 52.2285 7.79302 52.2603 8.15923 52.3188C11.5076 52.8584 14.0638 55.76 14.0638 59.261Z" fill="#F6CAAE"/>
<path d="M14.064 59.2605C14.064 62.7615 11.5078 65.6644 8.15943 66.2027C7.55029 63.9908 7.22559 61.6629 7.22559 59.2605C7.22559 56.8582 7.55029 54.5303 8.15943 52.3184C11.5078 52.8579 14.064 55.7595 14.064 59.2605Z" fill="#EAB599"/>
<path d="M9.54544 59.2595C9.54544 60.6475 8.41995 61.773 7.032 61.773C5.64405 61.773 4.51855 60.6475 4.51855 59.2595C4.51855 57.8716 5.64405 56.7461 7.032 56.7461C8.41995 56.7461 9.54544 57.8716 9.54544 59.2595Z" fill="#EAB599"/>
<path d="M55.5508 59.261C55.5508 62.762 58.1082 65.6649 61.4566 66.2032C61.8228 66.263 62.1988 66.2935 62.5833 66.2935C66.4676 66.2935 69.6146 63.1466 69.6146 59.261C69.6146 55.3767 66.4676 52.2285 62.5833 52.2285C62.1988 52.2285 61.8228 52.2603 61.4566 52.3188C58.1082 52.8584 55.5508 55.76 55.5508 59.261Z" fill="#F6CAAE"/>
<path d="M55.5508 59.2605C55.5508 62.7615 58.1082 65.6644 61.4566 66.2027C62.0645 63.9908 62.3892 61.6629 62.3892 59.2605C62.3892 56.8582 62.0645 54.5303 61.4566 52.3184C58.1082 52.8579 55.5508 55.7595 55.5508 59.2605Z" fill="#EAB599"/>
<path d="M60.9718 45.5605V55.5239C60.9718 68.544 51.46 79.3449 39.0063 81.3493C38.9648 81.3566 38.9196 81.3627 38.8781 81.37C37.5537 81.5824 36.1938 81.6874 34.8071 81.6874C20.3575 81.6874 8.64355 69.9735 8.64355 55.5239V45.5605C8.64355 42.5172 9.16236 39.5936 10.1218 36.8776C13.6997 26.6956 23.4019 19.3945 34.8071 19.3945H34.8083C36.1938 19.3945 37.5561 19.502 38.883 19.7107C51.3977 21.6675 60.9718 32.4964 60.9718 45.5605V45.5605Z" fill="#EAB599"/>
<path d="M65.095 59.2595C65.095 60.6475 63.9707 61.773 62.5828 61.773C61.1936 61.773 60.0693 60.6475 60.0693 59.2595C60.0693 57.8716 61.1936 56.7461 62.5828 56.7461C63.9707 56.7461 65.095 57.8716 65.095 59.2595Z" fill="#EAB599"/>
<path d="M60.972 45.5588V55.5222C60.972 68.5423 51.4602 79.3432 39.0065 81.3476C38.965 81.3549 38.9198 81.361 38.8783 81.3683C26.3636 79.4127 16.792 68.5838 16.792 55.5222V45.5588C16.792 32.4947 26.366 21.6658 38.8832 19.709C51.3979 21.6658 60.972 32.4947 60.972 45.5588V45.5588Z" fill="#F6CAAE"/>
<path d="M29.2361 53.9981C29.2361 55.6363 27.9068 56.9656 26.2674 56.9656C24.6292 56.9656 23.2998 55.6363 23.2998 53.9981C23.2998 52.3587 24.6292 51.0293 26.2674 51.0293C27.9068 51.0293 29.2361 52.3587 29.2361 53.9981Z" fill="#3D4159"/>
<path d="M46.3162 53.9981C46.3162 55.6363 44.9881 56.9656 43.3487 56.9656C41.7092 56.9656 40.3799 55.6363 40.3799 53.9981C40.3799 52.3587 41.7092 51.0293 43.3487 51.0293C44.9881 51.0293 46.3162 52.3587 46.3162 53.9981Z" fill="#3D4159"/>
<path d="M28.6309 53.4751C28.6309 54.177 28.062 54.7459 27.3589 54.7459C26.657 54.7459 26.0869 54.177 26.0869 53.4751C26.0869 52.772 26.657 52.2031 27.3589 52.2031C28.062 52.2031 28.6309 52.772 28.6309 53.4751Z" fill="white"/>
<path d="M45.8574 53.4751C45.8574 54.177 45.2874 54.7459 44.5855 54.7459C43.8835 54.7459 43.3135 54.177 43.3135 53.4751C43.3135 52.772 43.8835 52.2031 44.5855 52.2031C45.2874 52.2031 45.8574 52.772 45.8574 53.4751Z" fill="white"/>
<path d="M37.7764 60.3091H31.8401C31.1333 60.3091 30.5596 59.7366 30.5596 59.0286C30.5596 58.3218 31.1333 57.748 31.8401 57.748H37.7764C38.4832 57.748 39.0569 58.3218 39.0569 59.0286C39.0569 59.7354 38.4832 60.3091 37.7764 60.3091Z" fill="#EAB599"/>
<path d="M34.8077 68.4073C32.6177 68.4073 30.4265 67.8579 28.4295 66.7605C27.8667 66.4505 27.6604 65.7425 27.9705 65.1797C28.2805 64.6157 28.9873 64.4107 29.5513 64.7207C32.8435 66.5298 36.7742 66.5298 40.0665 64.7207C40.6292 64.4107 41.3373 64.6157 41.6461 65.1797C41.9562 65.7425 41.7511 66.4505 41.1871 66.7605C39.19 67.8579 36.9989 68.4073 34.8077 68.4073Z" fill="#EAB599"/>
<path d="M60.9718 36.5177V46.7241H56.1024V38.7309L20.9508 32.1988L13.513 30.8158V46.7241H8.64355V36.5177C8.64355 24.8831 18.0735 15.4531 29.7057 15.4531H39.9084C40.1855 15.4531 40.4626 15.4568 40.7397 15.4714C51.9861 15.9036 60.9718 25.1602 60.9718 36.5177Z" fill="black"/>
<path d="M60.9722 36.517V46.7234H56.1028V38.7301L20.9512 32.1981C22.8884 22.8963 30.9586 15.8479 40.7401 15.4707C51.9865 15.9028 60.9722 25.1595 60.9722 36.517Z" fill="#404040"/>
<path d="M113.958 146.93V152.458C103.652 157.297 92.1424 160.001 80.0012 160.001C74.1345 160.001 68.413 159.371 62.9051 158.169C60.6908 157.686 58.513 157.115 56.3707 156.452C52.4229 155.234 48.6021 153.715 44.9424 151.929V146.93C44.9424 134.888 53.1187 124.755 64.2272 121.784C64.6325 121.676 65.0402 121.575 65.4552 121.487C66.5587 121.248 67.6916 121.082 68.8439 120.987C69.5458 120.928 70.255 120.902 70.9728 120.902H87.9236C89.8169 120.902 91.6651 121.101 93.4449 121.487C93.5462 121.507 93.6512 121.529 93.7489 121.552C94.0491 121.62 94.3494 121.696 94.6436 121.778C94.6534 121.778 94.6595 121.778 94.6656 121.78C97.599 122.564 100.325 123.848 102.748 125.533C109.523 130.231 113.958 138.064 113.958 146.93V146.93Z" fill="#DD7611"/>
<path d="M113.957 146.93V152.458C103.652 157.297 92.1418 160.001 80.0006 160.001C74.1339 160.001 68.4124 159.371 62.9046 158.169C60.6902 157.686 58.5125 157.115 56.3701 156.452V146.93C56.3701 134.888 64.5464 124.755 75.6549 121.784C76.0602 121.676 76.4679 121.575 76.8829 121.487C77.9865 121.248 79.1193 121.082 80.2716 120.987C80.9748 120.928 81.6828 120.902 82.4006 120.902H87.9231C89.8164 120.902 91.6645 121.101 93.4443 121.487C93.5457 121.507 93.6506 121.529 93.7483 121.552C94.0486 121.62 94.3489 121.696 94.6431 121.778C94.6528 121.778 94.6589 121.778 94.665 121.78C97.5984 122.564 100.324 123.848 102.747 125.533C109.522 130.231 113.957 138.064 113.957 146.93V146.93Z" fill="#FC9631"/>
<path d="M94.7314 121.486L94.6655 121.779L86.5063 159.739C84.3602 159.912 82.1923 160 80.0011 160C77.429 160 74.8778 159.879 72.3643 159.637L64.2271 121.783L64.1611 121.486H94.7314Z" fill="#F2F0EC"/>
<path d="M44.458 114.625V75.3699C44.458 71.3806 45.1233 67.4731 46.4356 63.7548C51.3489 49.774 64.6156 40.377 79.4472 40.377C81.2844 40.377 83.1179 40.5198 84.8989 40.8018C93.0484 42.075 100.524 46.2339 105.945 52.5133C111.424 58.8597 114.44 66.9775 114.44 75.3699V114.625" fill="#333333"/>
<path d="M58.8517 76.9033C58.8517 90.7889 66.9816 106.852 71.447 114.626H44.457V75.3701C44.457 71.382 45.1223 67.4745 46.4346 63.755C51.3174 49.8548 64.4633 40.4858 79.1924 40.3809C68.4342 40.6494 58.8517 57.9078 58.8517 76.9033Z" fill="black"/>
<path d="M88.7355 110.873V122.27C88.7355 126.442 85.984 129.969 82.1949 131.141C81.327 131.409 80.4029 131.556 79.4471 131.556C74.3189 131.556 70.1611 127.398 70.1611 122.27V110.873H88.7355Z" fill="#EAB599"/>
<path d="M88.7359 121.549V122.27C88.7359 126.443 85.9844 129.969 82.1954 131.141C78.7761 130.09 76.2053 127.118 75.7305 123.48C76.3506 123.518 76.9744 123.536 77.6018 123.536C79.3584 123.536 81.0808 123.397 82.7593 123.122C84.826 122.789 86.8243 122.258 88.7359 121.549V121.549Z" fill="#F6CAAE"/>
<path d="M53.9733 92.1959C53.9733 96.4952 50.8324 100.061 46.721 100.723C46.2706 100.795 45.8091 100.832 45.3367 100.832C40.5662 100.832 36.7002 96.9676 36.7002 92.1959C36.7002 87.4253 40.5662 83.5605 45.3367 83.5605C45.8091 83.5605 46.2706 83.5984 46.721 83.6704C50.8324 84.332 53.9733 87.8965 53.9733 92.1959V92.1959Z" fill="#F6CAAE"/>
<path d="M53.9737 92.1954C53.9737 96.4947 50.8328 100.06 46.7214 100.722C45.9744 98.0047 45.5752 95.147 45.5752 92.1954C45.5752 89.2449 45.9744 86.3872 46.7214 83.6699C50.8328 84.3315 53.9737 87.896 53.9737 92.1954Z" fill="#EAB599"/>
<path d="M48.4241 92.1934C48.4241 93.8987 47.0423 95.2806 45.3369 95.2806C43.6328 95.2806 42.251 93.8987 42.251 92.1934C42.251 90.4893 43.6328 89.1074 45.3369 89.1074C47.0423 89.1074 48.4241 90.4893 48.4241 92.1934Z" fill="#EAB599"/>
<path d="M101.625 81.1679V110.854C97.036 115.234 91.1521 118.268 84.6055 119.322C84.5542 119.331 84.4993 119.339 84.448 119.348C82.822 119.608 81.1521 119.737 79.448 119.737C61.7025 119.737 47.3164 105.351 47.3164 87.6059V75.3695C47.3164 73.8033 47.4287 72.2615 47.646 70.7552C55.2901 76.2533 66.2521 75.7101 73.2358 69.1084C75.549 66.9246 77.1555 64.3233 78.0649 61.5645C78.5703 66.396 80.781 71.0982 84.697 74.8006C89.3601 79.2037 95.5211 81.3278 101.625 81.1679V81.1679Z" fill="#EAB599"/>
<path d="M101.624 81.1679V110.854C97.0354 115.234 91.1516 118.268 84.6049 119.322C84.5536 119.331 84.4987 119.339 84.4474 119.348C69.0787 116.947 57.3232 103.647 57.3232 87.6059V75.3695C57.3232 75.0435 57.3281 74.7213 57.3403 74.3978C63.0069 74.9776 68.8895 73.2174 73.2352 69.1084C75.5485 66.9246 77.1549 64.3233 78.0643 61.5645C78.5709 66.396 80.7804 71.0982 84.6965 74.8006C89.3596 79.2037 95.5205 81.3278 101.624 81.1679V81.1679Z" fill="#F6CAAE"/>
<path d="M96.7049 84.8916C96.7049 81.9436 94.316 79.5547 91.3692 79.5547C88.4212 79.5547 86.0322 81.9436 86.0322 84.8916" fill="#EAB599"/>
<path d="M72.869 84.8916C72.869 81.9436 70.48 79.5547 67.532 79.5547C64.5852 79.5547 62.1963 81.9436 62.1963 84.8916" fill="#EAB599"/>
<path d="M71.1768 87.1626C71.1768 89.1756 69.5447 90.8077 67.5318 90.8077C65.5188 90.8077 63.8867 89.1756 63.8867 87.1626C63.8867 85.1497 65.5188 83.5176 67.5318 83.5176C69.5447 83.5176 71.1768 85.1497 71.1768 87.1626Z" fill="#3D4159"/>
<path d="M95.0137 87.1626C95.0137 89.1756 93.3816 90.8077 91.3687 90.8077C89.3545 90.8077 87.7236 89.1756 87.7236 87.1626C87.7236 85.1497 89.3545 83.5176 91.3687 83.5176C93.3816 83.5176 95.0137 85.1497 95.0137 87.1626Z" fill="#3D4159"/>
<path d="M83.0958 96.3418H75.8057C74.9377 96.3418 74.2334 95.6387 74.2334 94.7695C74.2334 93.9016 74.9377 93.1973 75.8057 93.1973H83.0958C83.9649 93.1973 84.668 93.9016 84.668 94.7695C84.668 95.6387 83.9649 96.3418 83.0958 96.3418Z" fill="#EAB599"/>
<path d="M79.4497 106.289C76.7592 106.289 74.0688 105.614 71.6164 104.266C70.9242 103.885 70.6715 103.017 71.0524 102.325C71.432 101.633 72.3012 101.381 72.9933 101.761C77.0363 103.984 81.8642 103.984 85.9072 101.761C86.5981 101.381 87.4673 101.633 87.8482 102.325C88.229 103.017 87.9763 103.885 87.2842 104.266C84.8318 105.615 82.1413 106.289 79.4497 106.289V106.289Z" fill="#EAB599"/>
<path d="M70.4341 86.5203C70.4341 87.3833 69.7359 88.0816 68.8728 88.0816C68.0098 88.0816 67.3115 87.3833 67.3115 86.5203C67.3115 85.6572 68.0098 84.959 68.8728 84.959C69.7359 84.959 70.4341 85.6572 70.4341 86.5203Z" fill="white"/>
<path d="M94.4488 86.5203C94.4488 87.3833 93.7505 88.0816 92.8875 88.0816C92.0244 88.0816 91.3262 87.3833 91.3262 86.5203C91.3262 85.6572 92.0244 84.959 92.8875 84.959C93.7505 84.959 94.4488 85.6572 94.4488 86.5203Z" fill="white"/>
</svg>
